STARTFONT 2.3
FONT -FontForge-Permanent Marker-Book-R-Normal--9-90-72-72-P-52-ISO10646-1
SIZE 9 72 72  2
FONTBOUNDINGBOX 14 13 -3 -3
COMMENT "Generated by fontforge, http://fontforge.sourceforge.net"
COMMENT "Copyright (c) 2010 by Font Diner, Inc. All rights reserved."
STARTPROPERTIES 40
FOUNDRY "FontForge"
FAMILY_NAME "Permanent Marker"
WEIGHT_NAME "Book"
SLANT "R"
SETWIDTH_NAME "Normal"
ADD_STYLE_NAME ""
PIXEL_SIZE 9
POINT_SIZE 90
RESOLUTION_X 72
RESOLUTION_Y 72
SPACING "P"
AVERAGE_WIDTH 52
CHARSET_REGISTRY "ISO10646"
CHARSET_ENCODING "1"
FONTNAME_REGISTRY ""
CHARSET_COLLECTIONS "ISO10646-1"
BITS_PER_PIXEL 2
FONT_NAME "PermanentMarker-Regular"
FACE_NAME "Permanent Marker Regular"
COPYRIGHT "Copyright (c) 2010 by Font Diner, Inc. All rights reserved."
FONT_VERSION "1.001"
FONT_ASCENT 7
FONT_DESCENT 2
UNDERLINE_POSITION -1
UNDERLINE_THICKNESS 1
X_HEIGHT 4
CAP_HEIGHT 6
RAW_ASCENT 799
RAW_DESCENT 200
NORM_SPACE 3
RELATIVE_WEIGHT 40
RELATIVE_SETWIDTH 50
SUPERSCRIPT_X 0
SUPERSCRIPT_Y 4
SUPERSCRIPT_SIZE 5
SUBSCRIPT_X 0
SUBSCRIPT_Y 1
SUBSCRIPT_SIZE 5
AVG_LOWERCASE_WIDTH 51
AVG_UPPERCASE_WIDTH 61
ENDPROPERTIES
CHARS 230
STARTCHAR space
ENCODING 32
SWIDTH 370 0
DWIDTH 3 0
BBX 1 1 0 0
BITMAP
00
ENDCHAR
STARTCHAR exclam
ENCODING 33
SWIDTH 260 0
DWIDTH 2 0
BBX 3 7 0 0
BITMAP
10
34
34
70
60
40
D0
ENDCHAR
STARTCHAR quotedbl
ENCODING 34
SWIDTH 492 0
DWIDTH 4 0
BBX 5 5 0 2
BITMAP
1540
3A80
3740
7700
1100
ENDCHAR
STARTCHAR numbersign
ENCODING 35
SWIDTH 703 0
DWIDTH 6 0
BBX 7 6 0 0
BITMAP
09A0
2FF4
2ED0
7FE0
7740
7300
ENDCHAR
STARTCHAR dollar
ENCODING 36
SWIDTH 493 0
DWIDTH 4 0
BBX 5 7 0 0
BITMAP
0100
0A40
7E80
BC00
0600
6D00
3400
ENDCHAR
STARTCHAR percent
ENCODING 37
SWIDTH 643 0
DWIDTH 6 0
BBX 6 7 0 0
BITMAP
0400
3860
BDD0
1700
1D80
77D0
9280
ENDCHAR
STARTCHAR ampersand
ENCODING 38
SWIDTH 599 0
DWIDTH 5 0
BBX 5 5 0 0
BITMAP
0600
7E00
BFC0
1D00
0800
ENDCHAR
STARTCHAR quotesingle
ENCODING 39
SWIDTH 265 0
DWIDTH 2 0
BBX 3 5 0 2
BITMAP
14
38
34
70
10
ENDCHAR
STARTCHAR parenleft
ENCODING 40
SWIDTH 361 0
DWIDTH 3 0
BBX 4 10 0 -2
BITMAP
01
0B
1D
38
70
A0
A0
A0
70
10
ENDCHAR
STARTCHAR parenright
ENCODING 41
SWIDTH 361 0
DWIDTH 3 0
BBX 4 10 -1 -2
BITMAP
04
09
0A
0B
0A
0D
1D
78
E0
40
ENDCHAR
STARTCHAR asterisk
ENCODING 42
SWIDTH 673 0
DWIDTH 6 0
BBX 6 5 0 2
BITMAP
0440
0FC0
6FF0
1F80
1880
ENDCHAR
STARTCHAR plus
ENCODING 43
SWIDTH 579 0
DWIDTH 5 0
BBX 5 5 0 0
BITMAP
0800
0D00
BF80
6C00
1400
ENDCHAR
STARTCHAR comma
ENCODING 44
SWIDTH 204 0
DWIDTH 2 0
BBX 2 3 -1 -2
BITMAP
70
A0
40
ENDCHAR
STARTCHAR hyphen
ENCODING 45
SWIDTH 609 0
DWIDTH 5 0
BBX 5 2 0 1
BITMAP
BF80
5000
ENDCHAR
STARTCHAR period
ENCODING 46
SWIDTH 228 0
DWIDTH 2 0
BBX 2 2 0 0
BITMAP
40
D0
ENDCHAR
STARTCHAR slash
ENCODING 47
SWIDTH 401 0
DWIDTH 4 0
BBX 6 6 -1 0
BITMAP
00D0
0280
0A00
1C00
3400
7000
ENDCHAR
STARTCHAR zero
ENCODING 48
SWIDTH 686 0
DWIDTH 6 0
BBX 6 7 0 0
BITMAP
0240
0B80
2EC0
74D0
B0A0
A6E0
7F80
ENDCHAR
STARTCHAR one
ENCODING 49
SWIDTH 322 0
DWIDTH 3 0
BBX 3 7 0 0
BITMAP
10
74
34
34
74
B0
A0
ENDCHAR
STARTCHAR two
ENCODING 50
SWIDTH 650 0
DWIDTH 6 0
BBX 7 7 0 0
BITMAP
1900
7FC0
16D0
0B40
3D00
7EF4
7E90
ENDCHAR
STARTCHAR three
ENCODING 51
SWIDTH 561 0
DWIDTH 5 0
BBX 5 7 0 0
BITMAP
1540
FFC0
BF40
3E00
1B40
6B80
B900
ENDCHAR
STARTCHAR four
ENCODING 52
SWIDTH 582 0
DWIDTH 5 0
BBX 5 7 0 0
BITMAP
0100
5340
6340
7FC0
1E00
0900
0A00
ENDCHAR
STARTCHAR five
ENCODING 53
SWIDTH 580 0
DWIDTH 5 0
BBX 6 7 0 0
BITMAP
0400
2FE0
BE90
7D00
1B00
6B40
6E00
ENDCHAR
STARTCHAR six
ENCODING 54
SWIDTH 500 0
DWIDTH 5 0
BBX 4 7 0 0
BITMAP
04
2D
34
B5
EF
FF
F9
ENDCHAR
STARTCHAR seven
ENCODING 55
SWIDTH 576 0
DWIDTH 5 0
BBX 6 7 0 0
BITMAP
5400
FF40
0740
1790
7F90
1D00
1800
ENDCHAR
STARTCHAR eight
ENCODING 56
SWIDTH 537 0
DWIDTH 5 0
BBX 5 7 0 0
BITMAP
1940
7EC0
77C0
3F40
3D00
7A00
2D00
ENDCHAR
STARTCHAR nine
ENCODING 57
SWIDTH 529 0
DWIDTH 5 0
BBX 5 7 0 0
BITMAP
0500
3F40
BB80
7F40
0300
0600
0600
ENDCHAR
STARTCHAR colon
ENCODING 58
SWIDTH 241 0
DWIDTH 2 0
BBX 2 4 0 0
BITMAP
A0
50
40
D0
ENDCHAR
STARTCHAR semicolon
ENCODING 59
SWIDTH 245 0
DWIDTH 2 0
BBX 3 6 -1 -2
BITMAP
28
14
00
34
70
50
ENDCHAR
STARTCHAR less
ENCODING 60
SWIDTH 625 0
DWIDTH 6 0
BBX 6 5 0 0
BITMAP
0040
06D0
BE00
7E00
0640
ENDCHAR
STARTCHAR equal
ENCODING 61
SWIDTH 586 0
DWIDTH 5 0
BBX 5 3 0 1
BITMAP
7F80
5500
FE40
ENDCHAR
STARTCHAR greater
ENCODING 62
SWIDTH 634 0
DWIDTH 6 0
BBX 6 4 -1 0
BITMAP
1F40
02F0
2F90
6400
ENDCHAR
STARTCHAR question
ENCODING 63
SWIDTH 556 0
DWIDTH 5 0
BBX 6 7 0 0
BITMAP
1940
3FE0
02D0
1F40
2800
1000
7000
ENDCHAR
STARTCHAR at
ENCODING 64
SWIDTH 732 0
DWIDTH 7 0
BBX 7 8 0 -1
BITMAP
0140
07D0
2D70
BBA4
DEA4
DA90
7FD0
0100
ENDCHAR
STARTCHAR A
ENCODING 65
SWIDTH 702 0
DWIDTH 6 0
BBX 6 7 0 0
BITMAP
0100
0B80
2FC0
39D0
7FF0
EAE0
D1D0
ENDCHAR
STARTCHAR B
ENCODING 66
SWIDTH 686 0
DWIDTH 6 0
BBX 6 7 0 0
BITMAP
1640
FED0
AAD0
2F80
39A0
76E0
7F80
ENDCHAR
STARTCHAR C
ENCODING 67
SWIDTH 611 0
DWIDTH 6 0
BBX 6 7 0 0
BITMAP
0140
0BD0
7E40
F400
D000
BA40
2F80
ENDCHAR
STARTCHAR D
ENCODING 68
SWIDTH 588 0
DWIDTH 5 0
BBX 5 7 0 0
BITMAP
5000
7D00
6740
60C0
A6C0
BF40
A400
ENDCHAR
STARTCHAR E
ENCODING 69
SWIDTH 626 0
DWIDTH 6 0
BBX 6 7 0 0
BITMAP
0150
6FE0
7900
7F80
B900
EA80
BF80
ENDCHAR
STARTCHAR F
ENCODING 70
SWIDTH 575 0
DWIDTH 5 0
BBX 7 7 0 0
BITMAP
0190
6FE4
7C00
7940
FF80
A000
9000
ENDCHAR
STARTCHAR G
ENCODING 71
SWIDTH 789 0
DWIDTH 7 0
BBX 8 7 0 0
BITMAP
0040
07E0
1F40
7860
F07D
EAFC
7E90
ENDCHAR
STARTCHAR H
ENCODING 72
SWIDTH 695 0
DWIDTH 6 0
BBX 6 7 0 0
BITMAP
0010
3060
74B0
75B0
BFE0
F9D0
E0D0
ENDCHAR
STARTCHAR I
ENCODING 73
SWIDTH 515 0
DWIDTH 5 0
BBX 7 7 -1 0
BITMAP
05A0
0FE8
0280
0340
0740
1B40
7E80
ENDCHAR
STARTCHAR J
ENCODING 74
SWIDTH 668 0
DWIDTH 6 0
BBX 7 7 0 0
BITMAP
0554
7FFC
15C0
0280
0380
9B40
BD00
ENDCHAR
STARTCHAR K
ENCODING 75
SWIDTH 776 0
DWIDTH 7 0
BBX 7 7 0 0
BITMAP
0400
2D78
3EF4
7F80
BF40
B6FC
A064
ENDCHAR
STARTCHAR L
ENCODING 76
SWIDTH 632 0
DWIDTH 6 0
BBX 6 7 0 0
BITMAP
1400
2C00
3800
7400
B000
FA80
BE90
ENDCHAR
STARTCHAR M
ENCODING 77
SWIDTH 973 0
DWIDTH 9 0
BBX 9 7 0 0
BITMAP
040100
1F0740
2F6F80
7FFF40
B7D740
E00B00
900600
ENDCHAR
STARTCHAR N
ENCODING 78
SWIDTH 684 0
DWIDTH 6 0
BBX 7 7 0 0
BITMAP
0410
1D74
2DB0
7DA0
BEE0
FBD0
9240
ENDCHAR
STARTCHAR O
ENCODING 79
SWIDTH 744 0
DWIDTH 7 0
BBX 7 7 0 0
BITMAP
0180
07D0
1FD0
7870
A034
E6F4
7F90
ENDCHAR
STARTCHAR P
ENCODING 80
SWIDTH 639 0
DWIDTH 6 0
BBX 6 7 0 0
BITMAP
0640
1FE0
29B0
7FE0
BE40
7000
B000
ENDCHAR
STARTCHAR Q
ENCODING 81
SWIDTH 744 0
DWIDTH 7 0
BBX 7 8 0 -1
BITMAP
0140
03D0
1FB0
7934
E2B4
EBE0
BEB0
0010
ENDCHAR
STARTCHAR R
ENCODING 82
SWIDTH 646 0
DWIDTH 6 0
BBX 6 8 0 -1
BITMAP
0100
0F80
3EC0
7BC0
BE40
BE40
97E0
0040
ENDCHAR
STARTCHAR S
ENCODING 83
SWIDTH 576 0
DWIDTH 5 0
BBX 6 7 0 0
BITMAP
0190
6FF0
FD00
6F00
0240
1F40
7900
ENDCHAR
STARTCHAR T
ENCODING 84
SWIDTH 607 0
DWIDTH 5 0
BBX 7 7 0 0
BITMAP
0564
FFF8
5B00
0D00
1C00
2800
1800
ENDCHAR
STARTCHAR U
ENCODING 85
SWIDTH 695 0
DWIDTH 6 0
BBX 7 7 0 0
BITMAP
0010
1034
7034
B0B4
B2E0
7F80
2E00
ENDCHAR
STARTCHAR V
ENCODING 86
SWIDTH 583 0
DWIDTH 5 0
BBX 6 7 0 0
BITMAP
1010
70F0
72D0
7B80
3E00
3D00
2800
ENDCHAR
STARTCHAR W
ENCODING 87
SWIDTH 994 0
DWIDTH 9 0
BBX 10 7 0 0
BITMAP
000040
2861D0
74F2C0
75E380
B7EB40
BFBE00
782C00
ENDCHAR
STARTCHAR X
ENCODING 88
SWIDTH 623 0
DWIDTH 6 0
BBX 6 7 0 0
BITMAP
1010
74B0
2FD0
1F00
7F40
E3C0
C1C0
ENDCHAR
STARTCHAR Y
ENCODING 89
SWIDTH 493 0
DWIDTH 4 0
BBX 6 7 0 0
BITMAP
5080
72D0
7B40
3E00
2C00
7400
B000
ENDCHAR
STARTCHAR Z
ENCODING 90
SWIDTH 664 0
DWIDTH 6 0
BBX 6 8 0 -1
BITMAP
1550
2FF0
02E0
1F40
7D00
F6D0
FF80
1000
ENDCHAR
STARTCHAR bracketleft
ENCODING 91
SWIDTH 387 0
DWIDTH 3 0
BBX 8 10 -1 -2
BITMAP
07FD
0750
0A00
0A00
0D00
1C00
2800
3400
7F80
1500
ENDCHAR
STARTCHAR backslash
ENCODING 92
SWIDTH 352 0
DWIDTH 3 0
BBX 3 7 0 0
BITMAP
50
60
70
30
34
24
28
ENDCHAR
STARTCHAR bracketright
ENCODING 93
SWIDTH 403 0
DWIDTH 4 0
BBX 7 10 -3 -2
BITMAP
07F8
0178
0034
0070
00A0
00A0
00D0
01C0
7F80
1400
ENDCHAR
STARTCHAR asciicircum
ENCODING 94
SWIDTH 518 0
DWIDTH 5 0
BBX 4 6 0 1
BITMAP
05
0E
2F
77
E3
40
ENDCHAR
STARTCHAR underscore
ENCODING 95
SWIDTH 708 0
DWIDTH 6 0
BBX 7 2 -1 -1
BITMAP
BFFC
1000
ENDCHAR
STARTCHAR grave
ENCODING 96
SWIDTH 754 0
DWIDTH 7 0
BBX 4 3 2 4
BITMAP
20
78
1D
ENDCHAR
STARTCHAR a
ENCODING 97
SWIDTH 581 0
DWIDTH 5 0
BBX 5 5 0 0
BITMAP
1B00
3F00
7780
EF80
C340
ENDCHAR
STARTCHAR b
ENCODING 98
SWIDTH 573 0
DWIDTH 5 0
BBX 5 6 0 0
BITMAP
1500
FB80
7B40
3E40
7680
BE40
ENDCHAR
STARTCHAR c
ENCODING 99
SWIDTH 513 0
DWIDTH 5 0
BBX 5 6 0 0
BITMAP
0100
1F40
7900
E000
E500
6F00
ENDCHAR
STARTCHAR d
ENCODING 100
SWIDTH 497 0
DWIDTH 4 0
BBX 5 5 0 0
BITMAP
7800
6600
6240
AE00
A400
ENDCHAR
STARTCHAR e
ENCODING 101
SWIDTH 521 0
DWIDTH 5 0
BBX 5 6 0 0
BITMAP
0140
7F80
7900
7E00
E500
BF40
ENDCHAR
STARTCHAR f
ENCODING 102
SWIDTH 455 0
DWIDTH 4 0
BBX 5 6 0 0
BITMAP
0140
7E80
7400
BA00
E500
9000
ENDCHAR
STARTCHAR g
ENCODING 103
SWIDTH 652 0
DWIDTH 6 0
BBX 6 6 0 0
BITMAP
0100
0B80
2D00
B1D0
D6F0
BE40
ENDCHAR
STARTCHAR h
ENCODING 104
SWIDTH 582 0
DWIDTH 5 0
BBX 5 6 0 0
BITMAP
0040
61C0
71C0
B7C0
FB80
D240
ENDCHAR
STARTCHAR i
ENCODING 105
SWIDTH 320 0
DWIDTH 3 0
BBX 3 6 0 0
BITMAP
10
34
34
70
60
60
ENDCHAR
STARTCHAR j
ENCODING 106
SWIDTH 534 0
DWIDTH 5 0
BBX 6 6 0 0
BITMAP
0540
7FE0
1300
0700
5A00
F800
ENDCHAR
STARTCHAR k
ENCODING 107
SWIDTH 645 0
DWIDTH 6 0
BBX 6 5 0 0
BITMAP
29D0
3B80
BE00
BBA0
A190
ENDCHAR
STARTCHAR l
ENCODING 108
SWIDTH 533 0
DWIDTH 5 0
BBX 5 6 0 0
BITMAP
1000
3400
7000
A000
E500
BE40
ENDCHAR
STARTCHAR m
ENCODING 109
SWIDTH 814 0
DWIDTH 7 0
BBX 7 6 0 0
BITMAP
0400
2D2C
3EBC
7FEC
E128
D014
ENDCHAR
STARTCHAR n
ENCODING 110
SWIDTH 564 0
DWIDTH 5 0
BBX 6 6 0 0
BITMAP
0040
28D0
39C0
BA80
EF80
9600
ENDCHAR
STARTCHAR o
ENCODING 111
SWIDTH 628 0
DWIDTH 6 0
BBX 6 6 0 0
BITMAP
0100
0B40
3E80
A0C0
D6D0
BF40
ENDCHAR
STARTCHAR p
ENCODING 112
SWIDTH 524 0
DWIDTH 5 0
BBX 5 6 0 0
BITMAP
0500
2F80
76C0
BF40
A400
A000
ENDCHAR
STARTCHAR q
ENCODING 113
SWIDTH 625 0
DWIDTH 6 0
BBX 6 7 0 -1
BITMAP
0100
0B80
2DC0
B590
D7C0
BEC0
0040
ENDCHAR
STARTCHAR r
ENCODING 114
SWIDTH 541 0
DWIDTH 5 0
BBX 5 7 0 -1
BITMAP
0400
1F00
7740
BF00
B800
9B80
0040
ENDCHAR
STARTCHAR s
ENCODING 115
SWIDTH 463 0
DWIDTH 4 0
BBX 5 6 0 0
BITMAP
0140
6FC0
F800
1A00
1A00
B800
ENDCHAR
STARTCHAR t
ENCODING 116
SWIDTH 479 0
DWIDTH 4 0
BBX 6 6 0 0
BITMAP
0550
FFA0
1D00
2800
3400
2400
ENDCHAR
STARTCHAR u
ENCODING 117
SWIDTH 584 0
DWIDTH 5 0
BBX 6 5 0 0
BITMAP
5090
70D0
A2C0
7F40
3D00
ENDCHAR
STARTCHAR v
ENCODING 118
SWIDTH 485 0
DWIDTH 4 0
BBX 5 6 0 0
BITMAP
0040
62C0
7740
7E00
3C00
3400
ENDCHAR
STARTCHAR w
ENCODING 119
SWIDTH 825 0
DWIDTH 7 0
BBX 8 5 0 0
BITMAP
3486
72CE
A79C
AEF8
78B0
ENDCHAR
STARTCHAR x
ENCODING 120
SWIDTH 506 0
DWIDTH 5 0
BBX 5 5 0 0
BITMAP
76C0
3F40
3D00
AB00
C300
ENDCHAR
STARTCHAR y
ENCODING 121
SWIDTH 400 0
DWIDTH 4 0
BBX 5 6 0 0
BITMAP
4100
6740
7E00
3C00
7400
A000
ENDCHAR
STARTCHAR z
ENCODING 122
SWIDTH 547 0
DWIDTH 5 0
BBX 5 7 0 -1
BITMAP
1540
2FC0
0B40
2D00
E540
FE40
1000
ENDCHAR
STARTCHAR braceleft
ENCODING 123
SWIDTH 448 0
DWIDTH 4 0
BBX 7 10 0 -2
BITMAP
07FC
0750
0A00
6D00
B400
3C00
2800
3400
7F80
1400
ENDCHAR
STARTCHAR bar
ENCODING 124
SWIDTH 332 0
DWIDTH 3 0
BBX 3 7 0 0
BITMAP
04
1C
28
34
70
A0
D0
ENDCHAR
STARTCHAR braceright
ENCODING 125
SWIDTH 481 0
DWIDTH 4 0
BBX 7 10 -3 -2
BITMAP
07F4
0174
0034
0070
007C
00B8
01D0
02C0
7F80
5400
ENDCHAR
STARTCHAR asciitilde
ENCODING 126
SWIDTH 581 0
DWIDTH 5 0
BBX 5 2 0 2
BITMAP
2440
AF40
ENDCHAR
STARTCHAR uni00A0
ENCODING 160
SWIDTH 370 0
DWIDTH 3 0
BBX 1 1 0 0
BITMAP
00
ENDCHAR
STARTCHAR exclamdown
ENCODING 161
SWIDTH 260 0
DWIDTH 2 0
BBX 2 7 0 0
BITMAP
20
30
10
A0
A0
D0
C0
ENDCHAR
STARTCHAR cent
ENCODING 162
SWIDTH 488 0
DWIDTH 4 0
BBX 4 7 0 0
BITMAP
04
0A
2E
A4
D0
7F
30
ENDCHAR
STARTCHAR sterling
ENCODING 163
SWIDTH 586 0
DWIDTH 5 0
BBX 5 6 0 0
BITMAP
0A80
1D80
BE00
7500
BF80
5500
ENDCHAR
STARTCHAR currency
ENCODING 164
SWIDTH 509 0
DWIDTH 5 0
BBX 5 5 0 0
BITMAP
6A40
7E00
AA00
BE00
8100
ENDCHAR
STARTCHAR yen
ENCODING 165
SWIDTH 563 0
DWIDTH 5 0
BBX 5 6 0 0
BITMAP
1080
3780
2F00
BF80
6800
3400
ENDCHAR
STARTCHAR brokenbar
ENCODING 166
SWIDTH 301 0
DWIDTH 3 0
BBX 3 7 0 0
BITMAP
04
18
24
10
50
90
C0
ENDCHAR
STARTCHAR section
ENCODING 167
SWIDTH 630 0
DWIDTH 6 0
BBX 6 8 0 -1
BITMAP
2BD0
7D40
3F40
BAD0
7BC0
1B80
6BC0
A900
ENDCHAR
STARTCHAR dieresis
ENCODING 168
SWIDTH 754 0
DWIDTH 7 0
BBX 4 2 2 5
BITMAP
45
96
ENDCHAR
STARTCHAR copyright
ENCODING 169
SWIDTH 614 0
DWIDTH 6 0
BBX 6 6 0 1
BITMAP
0500
2980
6A50
A450
9980
2A40
ENDCHAR
STARTCHAR ordfeminine
ENCODING 170
SWIDTH 454 0
DWIDTH 4 0
BBX 4 4 0 2
BITMAP
18
3D
BF
DE
ENDCHAR
STARTCHAR guillemotleft
ENCODING 171
SWIDTH 566 0
DWIDTH 5 0
BBX 5 4 0 0
BITMAP
1480
BB40
DA00
7640
ENDCHAR
STARTCHAR logicalnot
ENCODING 172
SWIDTH 698 0
DWIDTH 6 0
BBX 6 3 0 0
BITMAP
BFD0
54D0
00C0
ENDCHAR
STARTCHAR sfthyphen
ENCODING 173
SWIDTH 608 0
DWIDTH 5 0
BBX 5 2 0 1
BITMAP
BF80
5000
ENDCHAR
STARTCHAR registered
ENCODING 174
SWIDTH 624 0
DWIDTH 6 0
BBX 6 6 0 1
BITMAP
0500
2A80
6A90
9E60
AAD0
2A40
ENDCHAR
STARTCHAR macron
ENCODING 175
SWIDTH 754 0
DWIDTH 7 0
BBX 4 2 2 5
BITMAP
69
69
ENDCHAR
STARTCHAR degree
ENCODING 176
SWIDTH 284 0
DWIDTH 3 0
BBX 4 4 0 4
BITMAP
04
2C
7D
14
ENDCHAR
STARTCHAR plusminus
ENCODING 177
SWIDTH 559 0
DWIDTH 5 0
BBX 5 6 0 0
BITMAP
0A00
1E40
7E80
1C00
1800
FF40
ENDCHAR
STARTCHAR twosuperior
ENCODING 178
SWIDTH 386 0
DWIDTH 3 0
BBX 4 4 0 3
BITMAP
14
6D
3D
69
ENDCHAR
STARTCHAR threesuperior
ENCODING 179
SWIDTH 366 0
DWIDTH 3 0
BBX 4 4 0 3
BITMAP
14
7D
2D
29
ENDCHAR
STARTCHAR acute
ENCODING 180
SWIDTH 754 0
DWIDTH 7 0
BBX 3 3 2 4
BITMAP
08
2C
60
ENDCHAR
STARTCHAR mu
ENCODING 181
SWIDTH 569 0
DWIDTH 5 0
BBX 5 6 0 -1
BITMAP
0080
60C0
A280
BB40
F900
C000
ENDCHAR
STARTCHAR paragraph
ENCODING 182
SWIDTH 729 0
DWIDTH 7 0
BBX 7 7 0 0
BITMAP
05A4
3FF8
7770
3BB0
0BF0
0AD0
09A0
ENDCHAR
STARTCHAR periodcentered
ENCODING 183
SWIDTH 226 0
DWIDTH 2 0
BBX 2 2 0 2
BITMAP
A0
50
ENDCHAR
STARTCHAR cedilla
ENCODING 184
SWIDTH 754 0
DWIDTH 7 0
BBX 4 4 2 -3
BITMAP
10
34
1D
68
ENDCHAR
STARTCHAR onesuperior
ENCODING 185
SWIDTH 206 0
DWIDTH 2 0
BBX 2 4 0 3
BITMAP
10
30
70
60
ENDCHAR
STARTCHAR ordmasculine
ENCODING 186
SWIDTH 445 0
DWIDTH 4 0
BBX 4 5 0 1
BITMAP
18
7D
AA
BE
10
ENDCHAR
STARTCHAR guillemotright
ENCODING 187
SWIDTH 595 0
DWIDTH 5 0
BBX 5 4 0 0
BITMAP
9500
7680
7780
C900
ENDCHAR
STARTCHAR onequarter
ENCODING 188
SWIDTH 705 0
DWIDTH 6 0
BBX 6 7 0 0
BITMAP
1040
71C0
7740
6D10
2AA0
A2E0
90C0
ENDCHAR
STARTCHAR onehalf
ENCODING 189
SWIDTH 750 0
DWIDTH 7 0
BBX 6 7 0 0
BITMAP
1040
71C0
7740
6E40
2AE0
A1E0
92E0
ENDCHAR
STARTCHAR threequarters
ENCODING 190
SWIDTH 818 0
DWIDTH 7 0
BBX 7 7 0 0
BITMAP
1800
7D34
2DE0
6B84
0AE8
28B4
3060
ENDCHAR
STARTCHAR questiondown
ENCODING 191
SWIDTH 556 0
DWIDTH 5 0
BBX 6 8 -1 -1
BITMAP
0040
0090
0040
0780
2E00
7940
7FC0
0500
ENDCHAR
STARTCHAR Agrave
ENCODING 192
SWIDTH 702 0
DWIDTH 6 0
BBX 6 10 0 0
BITMAP
0200
0780
01D0
0100
0B80
2FC0
39D0
7FF0
EAE0
D1D0
ENDCHAR
STARTCHAR Aacute
ENCODING 193
SWIDTH 702 0
DWIDTH 6 0
BBX 6 10 0 0
BITMAP
0080
02D0
0600
0100
0B80
2FC0
39D0
7FF0
EAE0
D1D0
ENDCHAR
STARTCHAR Acircumflex
ENCODING 194
SWIDTH 702 0
DWIDTH 6 0
BBX 6 9 0 0
BITMAP
0280
0AA0
0500
0B80
2FC0
39D0
7FF0
EAE0
D1D0
ENDCHAR
STARTCHAR Atilde
ENCODING 195
SWIDTH 702 0
DWIDTH 6 0
BBX 7 9 0 0
BITMAP
0294
0AF0
0100
0B80
2FC0
39D0
7FF0
EAE0
D1D0
ENDCHAR
STARTCHAR Adieresis
ENCODING 196
SWIDTH 702 0
DWIDTH 6 0
BBX 6 9 0 0
BITMAP
0550
0960
0100
0B80
2FC0
39D0
7FF0
EAE0
D1D0
ENDCHAR
STARTCHAR Aring
ENCODING 197
SWIDTH 702 0
DWIDTH 6 0
BBX 6 9 0 0
BITMAP
0080
02D0
03D0
0B80
2FC0
39D0
7FF0
EAE0
D1D0
ENDCHAR
STARTCHAR AE
ENCODING 198
SWIDTH 1153 0
DWIDTH 10 0
BBX 12 7 -1 0
BITMAP
005014
01F7FD
07F790
0E7BF4
2FFE90
76BEA8
60BBF8
ENDCHAR
STARTCHAR Ccedilla
ENCODING 199
SWIDTH 611 0
DWIDTH 6 0
BBX 6 10 0 -3
BITMAP
0140
0BD0
7E40
F400
D000
BA40
2F80
2800
1A00
2900
ENDCHAR
STARTCHAR Egrave
ENCODING 200
SWIDTH 626 0
DWIDTH 6 0
BBX 6 10 0 0
BITMAP
0500
0B40
0180
0150
6FE0
7900
7F80
B900
EA80
BF80
ENDCHAR
STARTCHAR Eacute
ENCODING 201
SWIDTH 626 0
DWIDTH 6 0
BBX 6 10 0 0
BITMAP
0080
02C0
0600
0150
6FE0
7900
7F80
B900
EA80
BF80
ENDCHAR
STARTCHAR Ecircumflex
ENCODING 202
SWIDTH 626 0
DWIDTH 6 0
BBX 6 9 0 0
BITMAP
0740
0DD0
0590
6FE0
7900
7F80
B900
EA80
BF80
ENDCHAR
STARTCHAR Edieresis
ENCODING 203
SWIDTH 626 0
DWIDTH 6 0
BBX 6 9 0 0
BITMAP
0450
0990
0150
6FE0
7900
7F80
B900
EA80
BF80
ENDCHAR
STARTCHAR Igrave
ENCODING 204
SWIDTH 515 0
DWIDTH 5 0
BBX 7 10 -1 0
BITMAP
0200
03C0
0090
05A0
0FE8
0280
0340
0740
1B40
7E80
ENDCHAR
STARTCHAR Iacute
ENCODING 205
SWIDTH 515 0
DWIDTH 5 0
BBX 7 10 -1 0
BITMAP
0014
0074
0090
05A0
0FE8
0280
0340
0740
1B40
7E80
ENDCHAR
STARTCHAR Icircumflex
ENCODING 206
SWIDTH 515 0
DWIDTH 5 0
BBX 7 10 -1 0
BITMAP
00A0
03B4
0100
05A0
0FE8
0280
0340
0740
1B40
7E80
ENDCHAR
STARTCHAR Idieresis
ENCODING 207
SWIDTH 515 0
DWIDTH 5 0
BBX 7 9 -1 0
BITMAP
0114
0258
05A0
0FE8
0280
0340
0740
1B40
7E80
ENDCHAR
STARTCHAR Eth
ENCODING 208
SWIDTH 656 0
DWIDTH 6 0
BBX 6 7 0 0
BITMAP
1000
2E00
2AC0
FDA0
B9E0
7F80
3900
ENDCHAR
STARTCHAR Ntilde
ENCODING 209
SWIDTH 684 0
DWIDTH 6 0
BBX 7 9 0 0
BITMAP
0294
06B4
0410
1D74
2DB0
7DA0
BEE0
FBD0
9240
ENDCHAR
STARTCHAR Ograve
ENCODING 210
SWIDTH 744 0
DWIDTH 7 0
BBX 7 10 0 0
BITMAP
0140
01D0
0060
0180
07D0
1FD0
7870
A034
E6F4
7F90
ENDCHAR
STARTCHAR Oacute
ENCODING 211
SWIDTH 744 0
DWIDTH 7 0
BBX 7 10 0 0
BITMAP
0080
02D0
0600
0180
07D0
1FD0
7870
A034
E6F4
7F90
ENDCHAR
STARTCHAR Ocircumflex
ENCODING 212
SWIDTH 744 0
DWIDTH 7 0
BBX 7 9 0 0
BITMAP
01D0
0770
0190
07D0
1FD0
7870
A034
E6F4
7F90
ENDCHAR
STARTCHAR Otilde
ENCODING 213
SWIDTH 744 0
DWIDTH 7 0
BBX 7 9 0 0
BITMAP
0294
06B4
0180
07D0
1FD0
7870
A034
E6F4
7F90
ENDCHAR
STARTCHAR Odieresis
ENCODING 214
SWIDTH 744 0
DWIDTH 7 0
BBX 7 9 0 0
BITMAP
0520
0620
0180
07D0
1FD0
7870
A034
E6F4
7F90
ENDCHAR
STARTCHAR multiply
ENCODING 215
SWIDTH 490 0
DWIDTH 4 0
BBX 4 5 0 0
BITMAP
51
7B
3C
AD
85
ENDCHAR
STARTCHAR Oslash
ENCODING 216
SWIDTH 744 0
DWIDTH 7 0
BBX 7 8 0 -1
BITMAP
0190
07F4
1FE0
7AF0
AB74
FFF4
7F90
3400
ENDCHAR
STARTCHAR Ugrave
ENCODING 217
SWIDTH 695 0
DWIDTH 6 0
BBX 7 9 0 0
BITMAP
0800
0E00
0250
1034
7034
B0B4
B2E0
7F80
2E00
ENDCHAR
STARTCHAR Uacute
ENCODING 218
SWIDTH 695 0
DWIDTH 6 0
BBX 7 10 0 0
BITMAP
0050
01D0
0240
0010
1034
7034
B0B4
B2E0
7F80
2E00
ENDCHAR
STARTCHAR Ucircumflex
ENCODING 219
SWIDTH 695 0
DWIDTH 6 0
BBX 7 9 0 0
BITMAP
0280
0ED0
0410
1034
7034
B0B4
B2E0
7F80
2E00
ENDCHAR
STARTCHAR Udieresis
ENCODING 220
SWIDTH 695 0
DWIDTH 6 0
BBX 7 9 0 0
BITMAP
0450
0960
0010
1034
7034
B0B4
B2E0
7F80
2E00
ENDCHAR
STARTCHAR Yacute
ENCODING 221
SWIDTH 493 0
DWIDTH 4 0
BBX 6 10 0 0
BITMAP
0080
02C0
0600
5080
72D0
7B40
3E00
2C00
7400
B000
ENDCHAR
STARTCHAR Thorn
ENCODING 222
SWIDTH 680 0
DWIDTH 6 0
BBX 6 7 0 0
BITMAP
1000
3900
7FE0
B0F0
BBD0
B900
6000
ENDCHAR
STARTCHAR germandbls
ENCODING 223
SWIDTH 931 0
DWIDTH 8 0
BBX 10 6 0 0
BITMAP
014140
6FEFD0
F8B800
1A1A00
1A0A00
B87800
ENDCHAR
STARTCHAR agrave
ENCODING 224
SWIDTH 581 0
DWIDTH 5 0
BBX 5 9 0 0
BITMAP
0400
0B00
0280
0000
1B00
3F00
7780
EF80
C340
ENDCHAR
STARTCHAR aacute
ENCODING 225
SWIDTH 581 0
DWIDTH 5 0
BBX 5 9 0 0
BITMAP
0140
0740
0D00
0000
1B00
3F00
7780
EF80
C340
ENDCHAR
STARTCHAR acircumflex
ENCODING 226
SWIDTH 581 0
DWIDTH 5 0
BBX 5 8 0 0
BITMAP
0A00
1EC0
0440
1B00
3F00
7780
EF80
C340
ENDCHAR
STARTCHAR atilde
ENCODING 227
SWIDTH 581 0
DWIDTH 5 0
BBX 6 8 0 0
BITMAP
0A50
2BD0
0000
1B00
3F00
7780
EF80
C340
ENDCHAR
STARTCHAR adieresis
ENCODING 228
SWIDTH 581 0
DWIDTH 5 0
BBX 6 8 0 0
BITMAP
0480
1890
0000
1B00
3F00
7780
EF80
C340
ENDCHAR
STARTCHAR aring
ENCODING 229
SWIDTH 581 0
DWIDTH 5 0
BBX 5 8 0 0
BITMAP
0100
0740
0B80
1F00
3F00
7780
EF80
C340
ENDCHAR
STARTCHAR ae
ENCODING 230
SWIDTH 948 0
DWIDTH 9 0
BBX 10 6 -1 0
BITMAP
004040
06DFD0
0FEE00
2DFF80
3AF540
61FF80
ENDCHAR
STARTCHAR ccedilla
ENCODING 231
SWIDTH 513 0
DWIDTH 5 0
BBX 5 9 0 -3
BITMAP
0100
1F40
7900
E000
E500
7F00
2800
1D00
2400
ENDCHAR
STARTCHAR egrave
ENCODING 232
SWIDTH 521 0
DWIDTH 5 0
BBX 5 9 0 0
BITMAP
1400
2D00
0A00
0140
7F80
7900
7E00
E500
BF40
ENDCHAR
STARTCHAR eacute
ENCODING 233
SWIDTH 521 0
DWIDTH 5 0
BBX 5 9 0 0
BITMAP
0140
0B40
0D00
0140
7F80
7900
7E00
E500
BF40
ENDCHAR
STARTCHAR ecircumflex
ENCODING 234
SWIDTH 521 0
DWIDTH 5 0
BBX 5 8 0 0
BITMAP
0740
1DC0
0540
7F80
7900
7E00
E500
BF40
ENDCHAR
STARTCHAR edieresis
ENCODING 235
SWIDTH 521 0
DWIDTH 5 0
BBX 6 8 0 0
BITMAP
0480
1890
0140
7F80
7900
7E00
E500
BF40
ENDCHAR
STARTCHAR igrave
ENCODING 236
SWIDTH 320 0
DWIDTH 3 0
BBX 4 9 0 0
BITMAP
20
38
09
10
34
34
70
60
60
ENDCHAR
STARTCHAR iacute
ENCODING 237
SWIDTH 320 0
DWIDTH 3 0
BBX 5 9 0 0
BITMAP
0140
0740
0900
1000
3400
3400
7000
6000
6000
ENDCHAR
STARTCHAR icircumflex
ENCODING 238
SWIDTH 320 0
DWIDTH 3 0
BBX 4 8 0 0
BITMAP
28
7B
11
34
34
70
60
60
ENDCHAR
STARTCHAR idieresis
ENCODING 239
SWIDTH 320 0
DWIDTH 3 0
BBX 4 8 0 0
BITMAP
51
A2
10
34
34
70
60
60
ENDCHAR
STARTCHAR eth
ENCODING 240
SWIDTH 541 0
DWIDTH 5 0
BBX 5 6 0 0
BITMAP
1000
3D00
7640
F580
7B40
7800
ENDCHAR
STARTCHAR ntilde
ENCODING 241
SWIDTH 564 0
DWIDTH 5 0
BBX 6 8 0 0
BITMAP
0660
0AE0
0040
28D0
39C0
BA80
EF80
9600
ENDCHAR
STARTCHAR ograve
ENCODING 242
SWIDTH 628 0
DWIDTH 6 0
BBX 6 9 0 0
BITMAP
0500
0740
01C0
0100
0B40
3E80
A0C0
D6D0
BF40
ENDCHAR
STARTCHAR oacute
ENCODING 243
SWIDTH 628 0
DWIDTH 6 0
BBX 6 9 0 0
BITMAP
0140
0780
0900
0100
0B40
3E80
A0C0
D6D0
BF40
ENDCHAR
STARTCHAR ocircumflex
ENCODING 244
SWIDTH 628 0
DWIDTH 6 0
BBX 6 8 0 0
BITMAP
0280
0ED0
0500
0B40
3E80
A0C0
D6D0
BF40
ENDCHAR
STARTCHAR otilde
ENCODING 245
SWIDTH 628 0
DWIDTH 6 0
BBX 6 8 0 0
BITMAP
0660
0AE0
0100
0B40
3E80
A0C0
D6D0
BF40
ENDCHAR
STARTCHAR odieresis
ENCODING 246
SWIDTH 628 0
DWIDTH 6 0
BBX 6 8 0 0
BITMAP
0450
0960
0100
0B40
3E80
A0C0
D6D0
BF40
ENDCHAR
STARTCHAR divide
ENCODING 247
SWIDTH 559 0
DWIDTH 5 0
BBX 5 5 0 0
BITMAP
0D00
0500
FF40
1400
2800
ENDCHAR
STARTCHAR oslash
ENCODING 248
SWIDTH 632 0
DWIDTH 6 0
BBX 6 7 0 -1
BITMAP
0140
0BD0
2FC0
BAC0
EED0
BF40
7000
ENDCHAR
STARTCHAR ugrave
ENCODING 249
SWIDTH 584 0
DWIDTH 5 0
BBX 6 9 0 0
BITMAP
0800
1E00
0640
0000
5090
70D0
A2C0
7F40
3D00
ENDCHAR
STARTCHAR uacute
ENCODING 250
SWIDTH 584 0
DWIDTH 5 0
BBX 6 8 0 0
BITMAP
0080
02C0
0640
5090
70D0
A2C0
7F40
3D00
ENDCHAR
STARTCHAR ucircumflex
ENCODING 251
SWIDTH 584 0
DWIDTH 5 0
BBX 6 8 0 0
BITMAP
0740
1DC0
0040
5090
70D0
A2C0
7F40
3D00
ENDCHAR
STARTCHAR udieresis
ENCODING 252
SWIDTH 584 0
DWIDTH 5 0
BBX 6 8 0 0
BITMAP
0480
1890
0000
5090
70D0
A2C0
7F40
3D00
ENDCHAR
STARTCHAR yacute
ENCODING 253
SWIDTH 400 0
DWIDTH 4 0
BBX 5 9 0 0
BITMAP
0140
0780
0A00
4100
6740
7E00
3C00
7400
A000
ENDCHAR
STARTCHAR thorn
ENCODING 254
SWIDTH 579 0
DWIDTH 5 0
BBX 5 6 0 0
BITMAP
1000
7900
7AC0
A7C0
B900
A000
ENDCHAR
STARTCHAR ydieresis
ENCODING 255
SWIDTH 400 0
DWIDTH 4 0
BBX 5 8 0 0
BITMAP
1540
2580
4100
6740
7E00
3C00
7400
A000
ENDCHAR
STARTCHAR dotlessi
ENCODING 305
SWIDTH 320 0
DWIDTH 3 0
BBX 3 6 0 0
BITMAP
10
34
34
70
60
60
ENDCHAR
STARTCHAR Lslash
ENCODING 321
SWIDTH 632 0
DWIDTH 6 0
BBX 7 7 -1 0
BITMAP
0500
0B00
0F40
7E40
7C00
3EA0
2FA4
ENDCHAR
STARTCHAR lslash
ENCODING 322
SWIDTH 533 0
DWIDTH 5 0
BBX 6 6 -1 0
BITMAP
0400
0D00
1E00
BD00
7940
2F90
ENDCHAR
STARTCHAR OE
ENCODING 338
SWIDTH 1212 0
DWIDTH 11 0
BBX 11 7 0 0
BITMAP
018054
07DBFC
1FDF50
787FE0
A03E90
E6FDA4
7F9FE4
ENDCHAR
STARTCHAR oe
ENCODING 339
SWIDTH 1010 0
DWIDTH 9 0
BBX 9 6 0 0
BITMAP
010140
0B6FC0
3EB900
A0FF40
D6F540
BFBF80
ENDCHAR
STARTCHAR Scaron
ENCODING 352
SWIDTH 576 0
DWIDTH 5 0
BBX 6 10 0 0
BITMAP
0850
0BC0
0100
0190
6FF0
FD00
6F00
0240
1F40
7900
ENDCHAR
STARTCHAR scaron
ENCODING 353
SWIDTH 463 0
DWIDTH 4 0
BBX 5 9 0 0
BITMAP
2540
1F40
0400
0140
6FC0
F800
1A00
1A00
B800
ENDCHAR
STARTCHAR Ydieresis
ENCODING 376
SWIDTH 493 0
DWIDTH 4 0
BBX 6 9 0 0
BITMAP
0480
1890
5080
72D0
7B40
3E00
2C00
7400
B000
ENDCHAR
STARTCHAR Zcaron
ENCODING 381
SWIDTH 664 0
DWIDTH 6 0
BBX 7 11 0 -1
BITMAP
0224
02E0
0040
1550
2FF0
02E0
1F40
7D00
F6D0
FF80
1000
ENDCHAR
STARTCHAR zcaron
ENCODING 382
SWIDTH 547 0
DWIDTH 5 0
BBX 6 10 0 -1
BITMAP
0850
0BC0
0100
1540
2FC0
0B40
2D00
E540
FE40
1000
ENDCHAR
STARTCHAR circumflex
ENCODING 710
SWIDTH 754 0
DWIDTH 7 0
BBX 4 3 2 4
BITMAP
28
AA
40
ENDCHAR
STARTCHAR caron
ENCODING 711
SWIDTH 754 0
DWIDTH 7 0
BBX 4 3 2 4
BITMAP
96
7D
10
ENDCHAR
STARTCHAR breve
ENCODING 728
SWIDTH 754 0
DWIDTH 7 0
BBX 4 2 2 5
BITMAP
96
7D
ENDCHAR
STARTCHAR dotaccent
ENCODING 729
SWIDTH 754 0
DWIDTH 7 0
BBX 2 2 3 5
BITMAP
50
90
ENDCHAR
STARTCHAR ring
ENCODING 730
SWIDTH 754 0
DWIDTH 7 0
BBX 4 4 2 4
BITMAP
04
2C
7D
14
ENDCHAR
STARTCHAR ogonek
ENCODING 731
SWIDTH 754 0
DWIDTH 7 0
BBX 4 3 2 -3
BITMAP
60
3A
05
ENDCHAR
STARTCHAR tilde
ENCODING 732
SWIDTH 754 0
DWIDTH 7 0
BBX 4 2 2 5
BITMAP
66
EE
ENDCHAR
STARTCHAR hungarumlaut
ENCODING 733
SWIDTH 754 0
DWIDTH 7 0
BBX 6 3 1 4
BITMAP
0840
3AD0
6740
ENDCHAR
STARTCHAR endash
ENCODING 8211
SWIDTH 588 0
DWIDTH 5 0
BBX 5 2 0 1
BITMAP
BF80
5000
ENDCHAR
STARTCHAR emdash
ENCODING 8212
SWIDTH 878 0
DWIDTH 8 0
BBX 7 2 0 1
BITMAP
BFFC
1000
ENDCHAR
STARTCHAR quoteleft
ENCODING 8216
SWIDTH 203 0
DWIDTH 2 0
BBX 2 3 1 4
BITMAP
A0
D0
C0
ENDCHAR
STARTCHAR quoteright
ENCODING 8217
SWIDTH 199 0
DWIDTH 2 0
BBX 3 3 0 4
BITMAP
14
38
70
ENDCHAR
STARTCHAR quotesinglbase
ENCODING 8218
SWIDTH 204 0
DWIDTH 2 0
BBX 2 3 -1 -2
BITMAP
70
A0
40
ENDCHAR
STARTCHAR quotedblleft
ENCODING 8220
SWIDTH 410 0
DWIDTH 4 0
BBX 4 3 1 4
BITMAP
99
ED
D8
ENDCHAR
STARTCHAR quotedblright
ENCODING 8221
SWIDTH 425 0
DWIDTH 4 0
BBX 5 3 0 4
BITMAP
1540
3B80
7700
ENDCHAR
STARTCHAR quotedblbase
ENCODING 8222
SWIDTH 430 0
DWIDTH 4 0
BBX 4 3 -1 -2
BITMAP
77
AA
44
ENDCHAR
STARTCHAR bullet
ENCODING 8226
SWIDTH 299 0
DWIDTH 3 0
BBX 2 3 0 1
BITMAP
60
B0
10
ENDCHAR
STARTCHAR ellipsis
ENCODING 8230
SWIDTH 768 0
DWIDTH 7 0
BBX 6 2 0 0
BITMAP
4010
DA70
ENDCHAR
STARTCHAR perthousand
ENCODING 8240
SWIDTH 889 0
DWIDTH 8 0
BBX 8 7 0 0
BITMAP
0400
3860
BDD0
1700
1D86
77EF
929A
ENDCHAR
STARTCHAR guilsinglleft
ENCODING 8249
SWIDTH 322 0
DWIDTH 3 0
BBX 3 4 0 0
BITMAP
14
B4
D0
70
ENDCHAR
STARTCHAR guilsinglright
ENCODING 8250
SWIDTH 341 0
DWIDTH 3 0
BBX 3 4 0 0
BITMAP
90
74
74
C0
ENDCHAR
STARTCHAR fraction
ENCODING 8260
SWIDTH 541 0
DWIDTH 5 0
BBX 5 7 0 0
BITMAP
0040
0280
0700
1D00
3400
A000
D000
ENDCHAR
STARTCHAR Euro
ENCODING 8364
SWIDTH 565 0
DWIDTH 5 0
BBX 5 6 0 0
BITMAP
0100
0B80
3D00
BE00
7900
1B40
ENDCHAR
STARTCHAR Delta
ENCODING 8710
SWIDTH 403 0
DWIDTH 4 0
BBX 6 6 -1 0
BITMAP
0540
0F90
0300
0600
0E00
7F00
ENDCHAR
STARTCHAR minus
ENCODING 8722
SWIDTH 548 0
DWIDTH 5 0
BBX 5 2 0 1
BITMAP
FF40
5000
ENDCHAR
STARTCHAR approxequal
ENCODING 8776
SWIDTH 323 0
DWIDTH 3 0
BBX 3 7 0 0
BITMAP
10
34
78
74
B0
B0
70
ENDCHAR
STARTCHAR fi
ENCODING 64257
SWIDTH 810 0
DWIDTH 7 0
BBX 7 6 0 0
BITMAP
0140
7EA8
7428
BA34
E534
9034
ENDCHAR
STARTCHAR fl
ENCODING 64258
SWIDTH 1012 0
DWIDTH 9 0
BBX 9 6 0 0
BITMAP
014400
7EA800
743400
BA7000
E5B540
907E80
ENDCHAR
STARTCHAR .notdef
ENCODING -1
SWIDTH 370 0
DWIDTH 3 0
BBX 1 1 0 0
BITMAP
00
ENDCHAR
ENDFONT
